<svg width="23" height="26" viewBox="0 0 23 26" fill="none" xmlns="http://www.w3.org/2000/svg">
<path d="M15.875 15.875C15.875 18.375 12.75 20.25 12.75 22.125H10.25C10.25 20.25 7.125 18.375 7.125 15.875C7.125 13.4625 9.0875 11.5 11.5 11.5C13.9125 11.5 15.875 13.4625 15.875 15.875ZM12.75 23.375H10.25V25.25H12.75V23.375ZM20.25 15.25C20.25 17.35 19.5125 19.2625 18.275 20.775L20.05 22.55C21.725 20.5875 22.75 18.0375 22.75 15.25C22.75 11.825 21.2125 8.7625 18.8 6.7L17.025 8.475C18.9875 10.075 20.25 12.525 20.25 15.25ZM16.5 5.25L11.5 0.25V4C5.2875 4 0.25 9.0375 0.25 15.25C0.25 18.0375 1.275 20.5875 2.95 22.55L4.725 20.775C3.4875 19.2625 2.75 17.35 2.75 15.25C2.75 10.425 6.675 6.5 11.5 6.5V10.25L16.5 5.25Z" fill="#1E1E1E" fill-opacity="0.75"/>
</svg>
