<svg width="16" height="18" viewBox="0 0 16 18" fill="none" xmlns="http://www.w3.org/2000/svg">
<path d="M10.2906 0H5.14531V1.7151H10.2906V0ZM6.86041 11.1482H8.57551V6.00286H6.86041V11.1482ZM13.7465 5.47118L14.9643 4.25345C14.5955 3.8161 14.1925 3.40448 13.7551 3.04431L12.5374 4.26203C11.2082 3.19867 9.53597 2.56408 7.71796 2.56408C3.45593 2.56408 0 6.02001 0 10.282C0 14.5441 3.44736 18 7.71796 18C11.9886 18 15.4359 14.5441 15.4359 10.282C15.4359 8.47261 14.8013 6.80038 13.7465 5.47118ZM7.71796 16.2935C4.39924 16.2935 1.7151 13.6093 1.7151 10.2906C1.7151 6.97189 4.39924 4.28776 7.71796 4.28776C11.0367 4.28776 13.7208 6.97189 13.7208 10.2906C13.7208 13.6093 11.0367 16.2935 7.71796 16.2935Z" fill="#33466C"/>
</svg>
