<svg width="19" height="19" viewBox="0 0 19 19" fill="none" xmlns="http://www.w3.org/2000/svg">
<path d="M9.5 2.375H15.0417C15.4616 2.375 15.8643 2.54181 16.1613 2.83875C16.4582 3.13568 16.625 3.53841 16.625 3.95833V15.0417C16.625 15.4616 16.4582 15.8643 16.1613 16.1613C15.8643 16.4582 15.4616 16.625 15.0417 16.625H9.5M9.5 2.375H3.95833C3.53841 2.375 3.13568 2.54181 2.83875 2.83875C2.54181 3.13568 2.375 3.53841 2.375 3.95833V15.0417C2.375 15.4616 2.54181 15.8643 2.83875 16.1613C3.13568 16.4582 3.53841 16.625 3.95833 16.625H9.5M9.5 2.375V16.625" stroke="#33466C" stroke-width="2" stroke-linecap="round" stroke-linejoin="round"/>
</svg>
