<svg width="14" height="16" viewBox="0 0 14 16" fill="none" xmlns="http://www.w3.org/2000/svg">
<path d="M9.625 10.125C9.625 11.625 7.75 12.75 7.75 13.875H6.25C6.25 12.75 4.375 11.625 4.375 10.125C4.375 8.6775 5.5525 7.5 7 7.5C8.4475 7.5 9.625 8.6775 9.625 10.125ZM7.75 14.625H6.25V15.75H7.75V14.625ZM12.25 9.75C12.25 11.01 11.8075 12.1575 11.065 13.065L12.13 14.13C13.135 12.9525 13.75 11.4225 13.75 9.75C13.75 7.695 12.8275 5.8575 11.38 4.62L10.315 5.685C11.4925 6.645 12.25 8.115 12.25 9.75ZM10 3.75L7 0.75V3C3.2725 3 0.25 6.0225 0.25 9.75C0.25 11.4225 0.865 12.9525 1.87 14.13L2.935 13.065C2.1925 12.1575 1.75 11.01 1.75 9.75C1.75 6.855 4.105 4.5 7 4.5V6.75L10 3.75Z" fill="#33466C"/>
</svg>
